<?xml version="1.0" encoding="UTF-8" standalone="no"?>
<!DOCTYPE svg PUBLIC "-//W3C//DTD SVG 1.1//EN" "http://www.w3.org/Graphics/SVG/1.1/DTD/svg11.dtd">
<svg width="100%" height="100%" viewBox="0 0 1000 1000" version="1.1" xmlns="http://www.w3.org/2000/svg" xmlns:xlink="http://www.w3.org/1999/xlink" xml:space="preserve" xmlns:serif="http://www.serif.com/" style="fill-rule:evenodd;clip-rule:evenodd;stroke-linejoin:round;stroke-miterlimit:2;">
    <g transform="matrix(1.56087,0,0,1,-331.943478,-0)">
        <path d="M533,971.5L533,0L763,0L763,805.54C707.575,907.068 625.07,971.5 533,971.5Z" style="fill:rgb(24,42,70);"/>
    </g>
    <g transform="matrix(1.379699,0,0,0.959011,-189.849624,39.820374)">
        <path d="M234,765.616L234,142L500,142L500,971.5C392.579,971.5 296.668,891.153 234,765.616Z" style="fill:rgb(60,124,173);"/>
    </g>
    <g transform="matrix(1.318232,0,0,1.205174,-165.651519,-84.238993)">
        <g transform="matrix(416.666667,0,0,416.666667,764.25,703.006757)">
        </g>
        <text x="518px" y="703.007px" style="font-family:'Poppins-Bold', 'Poppins';font-weight:700;font-size:416.667px;fill:rgb(244,190,53);">T</text>
    </g>
    <g transform="matrix(1.11761,0,0,1.03221,-152.865894,-12.182623)">
        <g transform="matrix(486.486486,0,0,486.486486,564.945946,751)">
        </g>
        <text x="275px" y="751px" style="font-family:'Poppins-Bold', 'Poppins';font-weight:700;font-size:486.486px;fill:rgb(244,190,53);">Z</text>
    </g>
</svg>
