<?xml version="1.0" encoding="UTF-8" standalone="no"?>
<!DOCTYPE svg PUBLIC "-//W3C//DTD SVG 1.1//EN" "http://www.w3.org/Graphics/SVG/1.1/DTD/svg11.dtd">
<svg width="100%" height="100%" viewBox="0 0 650 470" version="1.1" xmlns="http://www.w3.org/2000/svg" xmlns:xlink="http://www.w3.org/1999/xlink" xml:space="preserve" xmlns:serif="http://www.serif.com/" style="fill-rule:evenodd;clip-rule:evenodd;stroke-linejoin:round;stroke-miterlimit:2;">
    <path d="M155.62,134.11L82.96,232.57L155.62,232.57L155.62,272L28.4,272L28.4,235.05L100.32,136.34L28.4,136.34L28.4,97.16L155.62,97.16L155.62,134.11Z" style="fill:rgb(111,142,172);fill-rule:nonzero;"/>
    <path d="M168.24,97.16L309.6,97.16L309.6,135.85L262.98,135.85L262.98,272L214.37,272L214.37,135.85L168.24,135.85L168.24,97.16Z" style="fill:rgb(24,42,70);fill-rule:nonzero;"/>
    <path d="M489.89,97.16L608.43,97.16L608.43,135.85L538.5,135.85L538.5,166.6L590.08,166.6L590.08,203.55L538.5,203.55L538.5,272L489.89,272L489.89,97.16Z" style="fill:rgb(24,42,70);fill-rule:nonzero;"/>
    <path d="M36.27,332.27L26.91,345.66L36.27,345.66L36.27,350L20.89,350L20.89,345.97L30.19,332.58L20.89,332.58L20.89,328.24L36.27,328.24L36.27,332.27Z" style="fill:rgb(24,42,70);fill-rule:nonzero;"/>
    <path d="M54.07,332.49L46.04,332.49L46.04,336.89L53.14,336.89L53.14,340.98L46.04,340.98L46.04,345.75L54.07,345.75L54.07,350L40.74,350L40.74,328.24L54.07,328.24L54.07,332.49Z" style="fill:rgb(24,42,70);fill-rule:nonzero;"/>
    <path d="M75.59,350L69.61,350L65.08,341.79L63.81,341.79L63.81,350L58.51,350L58.51,328.24L67.41,328.24C69.123,328.24 70.583,328.54 71.79,329.14C73.003,329.74 73.91,330.56 74.51,331.6C75.11,332.647 75.41,333.81 75.41,335.09C75.41,336.537 75,337.827 74.18,338.96C73.367,340.1 72.163,340.907 70.57,341.38L75.59,350ZM63.81,332.64L63.81,338.03L67.1,338.03C68.067,338.03 68.793,337.793 69.28,337.32C69.767,336.847 70.01,336.177 70.01,335.31C70.01,334.483 69.767,333.83 69.28,333.35C68.793,332.877 68.067,332.64 67.1,332.64L63.81,332.64Z" style="fill:rgb(24,42,70);fill-rule:nonzero;"/>
    <path d="M90.01,350.22C87.97,350.22 86.097,349.743 84.39,348.79C82.683,347.843 81.33,346.517 80.33,344.81C79.323,343.103 78.82,341.187 78.82,339.06C78.82,336.927 79.323,335.013 80.33,333.32C81.33,331.627 82.683,330.303 84.39,329.35C86.097,328.403 87.97,327.93 90.01,327.93C92.057,327.93 93.933,328.403 95.64,329.35C97.347,330.303 98.69,331.627 99.67,333.32C100.65,335.013 101.14,336.927 101.14,339.06C101.14,341.187 100.647,343.103 99.66,344.81C98.667,346.517 97.323,347.843 95.63,348.79C93.93,349.743 92.057,350.22 90.01,350.22ZM90.01,345.38C91.75,345.38 93.14,344.8 94.18,343.64C95.227,342.487 95.75,340.96 95.75,339.06C95.75,337.133 95.227,335.597 94.18,334.45C93.14,333.303 91.75,332.73 90.01,332.73C88.257,332.73 86.857,333.3 85.81,334.44C84.77,335.573 84.25,337.113 84.25,339.06C84.25,340.98 84.77,342.513 85.81,343.66C86.857,344.807 88.257,345.38 90.01,345.38Z" style="fill:rgb(24,42,70);fill-rule:nonzero;"/>
    <path d="M111.48,328.24L128.32,328.24L128.32,332.49L122.55,332.49L122.55,350L117.25,350L117.25,332.49L111.48,332.49L111.48,328.24Z" style="fill:rgb(24,42,70);fill-rule:nonzero;"/>
    <path d="M149.06,350L143.08,350L138.55,341.79L137.28,341.79L137.28,350L131.98,350L131.98,328.24L140.88,328.24C142.593,328.24 144.057,328.54 145.27,329.14C146.477,329.74 147.38,330.56 147.98,331.6C148.58,332.647 148.88,333.81 148.88,335.09C148.88,336.537 148.47,337.827 147.65,338.96C146.837,340.1 145.633,340.907 144.04,341.38L149.06,350ZM137.28,332.64L137.28,338.03L140.57,338.03C141.543,338.03 142.27,337.793 142.75,337.32C143.237,336.847 143.48,336.177 143.48,335.31C143.48,334.483 143.237,333.83 142.75,333.35C142.27,332.877 141.543,332.64 140.57,332.64L137.28,332.64Z" style="fill:rgb(24,42,70);fill-rule:nonzero;"/>
    <path d="M153.1,328.24L158.4,328.24L158.4,341.26C158.4,342.56 158.72,343.56 159.36,344.26C160,344.967 160.94,345.32 162.18,345.32C163.42,345.32 164.373,344.967 165.04,344.26C165.7,343.56 166.03,342.56 166.03,341.26L166.03,328.24L171.33,328.24L171.33,341.23C171.33,343.17 170.917,344.813 170.09,346.16C169.263,347.5 168.153,348.51 166.76,349.19C165.36,349.877 163.803,350.22 162.09,350.22C160.377,350.22 158.843,349.883 157.49,349.21C156.137,348.537 155.067,347.523 154.28,346.17C153.493,344.817 153.1,343.17 153.1,341.23L153.1,328.24Z" style="fill:rgb(24,42,70);fill-rule:nonzero;"/>
    <path d="M183.92,350.22C182.333,350.22 180.907,349.96 179.64,349.44C178.38,348.927 177.373,348.163 176.62,347.15C175.867,346.137 175.47,344.917 175.43,343.49L181.07,343.49C181.15,344.297 181.43,344.91 181.91,345.33C182.383,345.757 183.003,345.97 183.77,345.97C184.557,345.97 185.177,345.79 185.63,345.43C186.083,345.063 186.31,344.56 186.31,343.92C186.31,343.387 186.13,342.943 185.77,342.59C185.403,342.237 184.957,341.947 184.43,341.72C183.903,341.493 183.157,341.237 182.19,340.95C180.783,340.517 179.637,340.083 178.75,339.65C177.857,339.217 177.09,338.573 176.45,337.72C175.81,336.873 175.49,335.77 175.49,334.41C175.49,332.383 176.223,330.797 177.69,329.65C179.157,328.503 181.07,327.93 183.43,327.93C185.823,327.93 187.753,328.503 189.22,329.65C190.687,330.797 191.473,332.393 191.58,334.44L185.84,334.44C185.8,333.733 185.543,333.18 185.07,332.78C184.597,332.38 183.987,332.18 183.24,332.18C182.6,332.18 182.083,332.35 181.69,332.69C181.297,333.03 181.1,333.52 181.1,334.16C181.1,334.86 181.43,335.407 182.09,335.8C182.757,336.193 183.79,336.617 185.19,337.07C186.597,337.55 187.74,338.007 188.62,338.44C189.5,338.873 190.26,339.503 190.9,340.33C191.54,341.157 191.86,342.22 191.86,343.52C191.86,344.76 191.543,345.887 190.91,346.9C190.283,347.913 189.37,348.72 188.17,349.32C186.97,349.92 185.553,350.22 183.92,350.22Z" style="fill:rgb(24,42,70);fill-rule:nonzero;"/>
    <path d="M194.94,328.24L211.77,328.24L211.77,332.49L206,332.49L206,350L200.7,350L200.7,332.49L194.94,332.49L194.94,328.24Z" style="fill:rgb(24,42,70);fill-rule:nonzero;"/>
    <path d="M241.42,328.24L247.65,328.24L247.65,350L242.35,350L242.35,336.95L237.48,350L233.21,350L228.31,336.92L228.31,350L223.01,350L223.01,328.24L229.27,328.24L235.38,343.3L241.42,328.24Z" style="fill:rgb(24,42,70);fill-rule:nonzero;"/>
    <path d="M267.31,350L266.01,346.16L257.89,346.16L256.59,350L251.04,350L258.91,328.24L265.05,328.24L272.92,350L267.31,350ZM259.28,342.06L264.65,342.06L261.95,334.1L259.28,342.06Z" style="fill:rgb(24,42,70);fill-rule:nonzero;"/>
    <path d="M275.13,328.24L291.97,328.24L291.97,332.49L286.2,332.49L286.2,350L280.9,350L280.9,332.49L275.13,332.49L275.13,328.24Z" style="fill:rgb(24,42,70);fill-rule:nonzero;"/>
    <path d="M295.54,328.24L300.84,328.24L300.84,341.26C300.84,342.56 301.16,343.56 301.8,344.26C302.44,344.967 303.38,345.32 304.62,345.32C305.86,345.32 306.81,344.967 307.47,344.26C308.137,343.56 308.47,342.56 308.47,341.26L308.47,328.24L313.77,328.24L313.77,341.23C313.77,343.17 313.357,344.813 312.53,346.16C311.703,347.5 310.593,348.51 309.2,349.19C307.8,349.877 306.243,350.22 304.53,350.22C302.817,350.22 301.283,349.883 299.93,349.21C298.577,348.537 297.507,347.523 296.72,346.17C295.933,344.817 295.54,343.17 295.54,341.23L295.54,328.24Z" style="fill:rgb(24,42,70);fill-rule:nonzero;"/>
    <path d="M335.57,350L329.59,350L325.06,341.79L323.79,341.79L323.79,350L318.49,350L318.49,328.24L327.38,328.24C329.1,328.24 330.563,328.54 331.77,329.14C332.977,329.74 333.88,330.56 334.48,331.6C335.08,332.647 335.38,333.81 335.38,335.09C335.38,336.537 334.973,337.827 334.16,338.96C333.34,340.1 332.137,340.907 330.55,341.38L335.57,350ZM323.79,332.64L323.79,338.03L327.07,338.03C328.043,338.03 328.773,337.793 329.26,337.32C329.747,336.847 329.99,336.177 329.99,335.31C329.99,334.483 329.747,333.83 329.26,333.35C328.773,332.877 328.043,332.64 327.07,332.64L323.79,332.64Z" style="fill:rgb(24,42,70);fill-rule:nonzero;"/>
    <rect x="339.7" y="328.24" width="5.3" height="21.76" style="fill:rgb(24,42,70);fill-rule:nonzero;"/>
    <path d="M348.67,328.24L365.5,328.24L365.5,332.49L359.73,332.49L359.73,350L354.43,350L354.43,332.49L348.67,332.49L348.67,328.24Z" style="fill:rgb(24,42,70);fill-rule:nonzero;"/>
    <path d="M381.88,328.24L387.83,328.24L380.29,342.81L380.29,350L374.99,350L374.99,342.81L367.46,328.24L373.47,328.24L377.69,337.35L381.88,328.24Z" style="fill:rgb(24,42,70);fill-rule:nonzero;"/>
    <path d="M398.54,328.24L412.71,328.24L412.71,332.49L403.84,332.49L403.84,337.07L410.47,337.07L410.47,341.2L403.84,341.2L403.84,350L398.54,350L398.54,328.24Z" style="fill:rgb(24,42,70);fill-rule:nonzero;"/>
    <path d="M433.58,350L427.59,350L423.07,341.79L421.8,341.79L421.8,350L416.5,350L416.5,328.24L425.39,328.24C427.11,328.24 428.573,328.54 429.78,329.14C430.987,329.74 431.89,330.56 432.49,331.6C433.09,332.647 433.39,333.81 433.39,335.09C433.39,336.537 432.983,337.827 432.17,338.96C431.35,340.1 430.143,340.907 428.55,341.38L433.58,350ZM421.8,332.64L421.8,338.03L425.08,338.03C426.053,338.03 426.783,337.793 427.27,337.32C427.757,336.847 428,336.177 428,335.31C428,334.483 427.757,333.83 427.27,333.35C426.783,332.877 426.053,332.64 425.08,332.64L421.8,332.64Z" style="fill:rgb(24,42,70);fill-rule:nonzero;"/>
    <path d="M452.56,350L451.25,346.16L443.13,346.16L441.83,350L436.28,350L444.16,328.24L450.29,328.24L458.17,350L452.56,350ZM444.53,342.06L449.89,342.06L447.19,334.1L444.53,342.06Z" style="fill:rgb(24,42,70);fill-rule:nonzero;"/>
    <path d="M479.97,328.24L486.2,328.24L486.2,350L480.9,350L480.9,336.95L476.03,350L471.75,350L466.86,336.92L466.86,350L461.55,350L461.55,328.24L467.82,328.24L473.92,343.3L479.97,328.24Z" style="fill:rgb(24,42,70);fill-rule:nonzero;"/>
    <path d="M504.34,332.49L496.31,332.49L496.31,336.89L503.41,336.89L503.41,340.98L496.31,340.98L496.31,345.75L504.34,345.75L504.34,350L491.01,350L491.01,328.24L504.34,328.24L504.34,332.49Z" style="fill:rgb(24,42,70);fill-rule:nonzero;"/>
    <path d="M533.03,328.24L538.73,328.24L533.06,350L526.64,350L523.17,335.68L519.57,350L513.15,350L507.64,328.24L513.31,328.24L516.44,344.08L520.32,328.24L526.14,328.24L529.86,344.08L533.03,328.24Z" style="fill:rgb(24,42,70);fill-rule:nonzero;"/>
    <path d="M552.69,350.22C550.643,350.22 548.767,349.743 547.06,348.79C545.353,347.843 544,346.517 543,344.81C542,343.103 541.5,341.187 541.5,339.06C541.5,336.927 542,335.013 543,333.32C544,331.627 545.353,330.303 547.06,329.35C548.767,328.403 550.643,327.93 552.69,327.93C554.737,327.93 556.61,328.403 558.31,329.35C560.017,330.303 561.36,331.627 562.34,333.32C563.327,335.013 563.82,336.927 563.82,339.06C563.82,341.187 563.323,343.103 562.33,344.81C561.337,346.517 559.993,347.843 558.3,348.79C556.607,349.743 554.737,350.22 552.69,350.22ZM552.69,345.38C554.423,345.38 555.813,344.8 556.86,343.64C557.9,342.487 558.42,340.96 558.42,339.06C558.42,337.133 557.9,335.597 556.86,334.45C555.813,333.303 554.423,332.73 552.69,332.73C550.93,332.73 549.53,333.3 548.49,334.44C547.443,335.573 546.92,337.113 546.92,339.06C546.92,340.98 547.443,342.513 548.49,343.66C549.53,344.807 550.93,345.38 552.69,345.38Z" style="fill:rgb(24,42,70);fill-rule:nonzero;"/>
    <path d="M584.84,350L578.86,350L574.33,341.79L573.06,341.79L573.06,350L567.76,350L567.76,328.24L576.66,328.24C578.373,328.24 579.837,328.54 581.05,329.14C582.257,329.74 583.16,330.56 583.76,331.6C584.36,332.647 584.66,333.81 584.66,335.09C584.66,336.537 584.25,337.827 583.43,338.96C582.617,340.1 581.413,340.907 579.82,341.38L584.84,350ZM573.06,332.64L573.06,338.03L576.35,338.03C577.323,338.03 578.05,337.793 578.53,337.32C579.017,336.847 579.26,336.177 579.26,335.31C579.26,334.483 579.017,333.83 578.53,333.35C578.05,332.877 577.323,332.64 576.35,332.64L573.06,332.64Z" style="fill:rgb(24,42,70);fill-rule:nonzero;"/>
    <path d="M608.07,350L601.59,350L594.27,340.39L594.27,350L588.97,350L588.97,328.24L594.27,328.24L594.27,337.79L601.53,328.24L607.76,328.24L599.33,338.9L608.07,350Z" style="fill:rgb(24,42,70);fill-rule:nonzero;"/>
    <path d="M163.69,398.2C162.323,398.2 161.097,397.967 160.01,397.5C158.917,397.033 158.053,396.36 157.42,395.48C156.78,394.6 156.453,393.563 156.44,392.37L160.64,392.37C160.693,393.177 160.977,393.813 161.49,394.28C162.003,394.747 162.707,394.98 163.6,394.98C164.52,394.98 165.24,394.76 165.76,394.32C166.28,393.88 166.54,393.307 166.54,392.6C166.54,392.02 166.363,391.543 166.01,391.17C165.657,390.797 165.213,390.503 164.68,390.29C164.147,390.07 163.413,389.83 162.48,389.57C161.213,389.197 160.183,388.83 159.39,388.47C158.597,388.103 157.917,387.55 157.35,386.81C156.777,386.077 156.49,385.093 156.49,383.86C156.49,382.7 156.78,381.693 157.36,380.84C157.94,379.98 158.753,379.32 159.8,378.86C160.84,378.407 162.033,378.18 163.38,378.18C165.393,378.18 167.03,378.67 168.29,379.65C169.55,380.63 170.247,381.997 170.38,383.75L166.07,383.75C166.03,383.077 165.743,382.52 165.21,382.08C164.683,381.64 163.98,381.42 163.1,381.42C162.333,381.42 161.723,381.617 161.27,382.01C160.81,382.403 160.58,382.973 160.58,383.72C160.58,384.24 160.753,384.673 161.1,385.02C161.447,385.367 161.877,385.647 162.39,385.86C162.903,386.073 163.627,386.32 164.56,386.6C165.827,386.973 166.86,387.347 167.66,387.72C168.467,388.093 169.16,388.653 169.74,389.4C170.313,390.147 170.6,391.127 170.6,392.34C170.6,393.387 170.33,394.36 169.79,395.26C169.25,396.153 168.457,396.867 167.41,397.4C166.363,397.933 165.123,398.2 163.69,398.2Z" style="fill:rgb(24,42,70);fill-rule:nonzero;"/>
    <path d="M183.04,388.2C183.04,386.28 183.473,384.557 184.34,383.03C185.207,381.51 186.393,380.327 187.9,379.48C189.4,378.627 191.083,378.2 192.95,378.2C195.137,378.2 197.05,378.76 198.69,379.88C200.337,381 201.487,382.55 202.14,384.53L197.63,384.53C197.183,383.597 196.553,382.897 195.74,382.43C194.927,381.963 193.987,381.73 192.92,381.73C191.787,381.73 190.777,381.997 189.89,382.53C189.003,383.063 188.31,383.813 187.81,384.78C187.317,385.753 187.07,386.893 187.07,388.2C187.07,389.487 187.317,390.62 187.81,391.6C188.31,392.58 189.003,393.337 189.89,393.87C190.777,394.403 191.787,394.67 192.92,394.67C193.987,394.67 194.927,394.43 195.74,393.95C196.553,393.477 197.183,392.773 197.63,391.84L202.14,391.84C201.487,393.84 200.343,395.393 198.71,396.5C197.077,397.613 195.157,398.17 192.95,398.17C191.083,398.17 189.4,397.743 187.9,396.89C186.393,396.043 185.207,394.863 184.34,393.35C183.473,391.837 183.04,390.12 183.04,388.2Z" style="fill:rgb(24,42,70);fill-rule:nonzero;"/>
    <path d="M224.57,398.2C222.737,398.2 221.057,397.77 219.53,396.91C217.997,396.05 216.783,394.86 215.89,393.34C214.99,391.82 214.54,390.097 214.54,388.17C214.54,386.27 214.99,384.557 215.89,383.03C216.783,381.51 217.997,380.32 219.53,379.46C221.057,378.607 222.737,378.18 224.57,378.18C226.417,378.18 228.1,378.607 229.62,379.46C231.14,380.32 232.343,381.51 233.23,383.03C234.117,384.557 234.56,386.27 234.56,388.17C234.56,390.097 234.117,391.82 233.23,393.34C232.343,394.86 231.137,396.05 229.61,396.91C228.077,397.77 226.397,398.2 224.57,398.2ZM224.57,394.7C225.743,394.7 226.78,394.433 227.68,393.9C228.573,393.367 229.273,392.607 229.78,391.62C230.28,390.627 230.53,389.477 230.53,388.17C230.53,386.863 230.28,385.72 229.78,384.74C229.273,383.76 228.573,383.01 227.68,382.49C226.78,381.963 225.743,381.7 224.57,381.7C223.39,381.7 222.35,381.963 221.45,382.49C220.543,383.01 219.837,383.76 219.33,384.74C218.83,385.72 218.58,386.863 218.58,388.17C218.58,389.477 218.83,390.627 219.33,391.62C219.837,392.607 220.543,393.367 221.45,393.9C222.35,394.433 223.39,394.7 224.57,394.7Z" style="fill:rgb(24,42,70);fill-rule:nonzero;"/>
    <path d="M262.09,398L257.56,398L253.24,390.38L251.4,390.38L251.4,398L247.48,398L247.48,378.46L254.81,378.46C256.323,378.46 257.613,378.723 258.68,379.25C259.74,379.783 260.537,380.503 261.07,381.41C261.603,382.317 261.87,383.33 261.87,384.45C261.87,385.737 261.497,386.897 260.75,387.93C260.003,388.97 258.893,389.687 257.42,390.08L262.09,398ZM251.4,381.7L251.4,387.44L254.67,387.44C255.737,387.44 256.53,387.183 257.05,386.67C257.577,386.157 257.84,385.443 257.84,384.53C257.84,383.637 257.577,382.943 257.05,382.45C256.53,381.95 255.737,381.7 254.67,381.7L251.4,381.7Z" style="fill:rgb(24,42,70);fill-rule:nonzero;"/>
    <rect x="275.42" y="378.46" width="3.92" height="19.54" style="fill:rgb(24,42,70);fill-rule:nonzero;"/>
    <path d="M309.92,378.43L309.92,398L306,398L297.13,384.59L297.13,398L293.21,398L293.21,378.43L297.13,378.43L306,391.87L306,378.43L309.92,378.43Z" style="fill:rgb(24,42,70);fill-rule:nonzero;"/>
    <path d="M341.9,384.34L337.4,384.34C336.947,383.513 336.33,382.887 335.55,382.46C334.763,382.033 333.847,381.82 332.8,381.82C331.647,381.82 330.62,382.08 329.72,382.6C328.827,383.12 328.127,383.867 327.62,384.84C327.12,385.813 326.87,386.933 326.87,388.2C326.87,389.507 327.127,390.647 327.64,391.62C328.153,392.587 328.867,393.333 329.78,393.86C330.693,394.38 331.757,394.64 332.97,394.64C334.463,394.64 335.687,394.243 336.64,393.45C337.593,392.657 338.22,391.55 338.52,390.13L331.8,390.13L331.8,387.14L342.38,387.14L342.38,390.55C342.12,391.917 341.56,393.177 340.7,394.33C339.84,395.49 338.733,396.42 337.38,397.12C336.027,397.82 334.51,398.17 332.83,398.17C330.943,398.17 329.24,397.743 327.72,396.89C326.2,396.043 325.007,394.863 324.14,393.35C323.273,391.837 322.84,390.12 322.84,388.2C322.84,386.28 323.273,384.557 324.14,383.03C325.007,381.51 326.2,380.327 327.72,379.48C329.24,378.627 330.933,378.2 332.8,378.2C335.007,378.2 336.92,378.737 338.54,379.81C340.167,380.883 341.287,382.393 341.9,384.34Z" style="fill:rgb(24,42,70);fill-rule:nonzero;"/>
    <path d="M370.92,378.46L385.26,378.46L385.26,381.62L380.05,381.62L380.05,398L376.13,398L376.13,381.62L370.92,381.62L370.92,378.46Z" style="fill:rgb(24,42,70);fill-rule:nonzero;"/>
    <path d="M407.18,398.2C405.353,398.2 403.673,397.77 402.14,396.91C400.613,396.05 399.4,394.86 398.5,393.34C397.607,391.82 397.16,390.097 397.16,388.17C397.16,386.27 397.607,384.557 398.5,383.03C399.4,381.51 400.613,380.32 402.14,379.46C403.673,378.607 405.353,378.18 407.18,378.18C409.033,378.18 410.72,378.607 412.24,379.46C413.76,380.32 414.963,381.51 415.85,383.03C416.737,384.557 417.18,386.27 417.18,388.17C417.18,390.097 416.737,391.82 415.85,393.34C414.963,394.86 413.753,396.05 412.22,396.91C410.693,397.77 409.013,398.2 407.18,398.2ZM407.18,394.7C408.36,394.7 409.397,394.433 410.29,393.9C411.19,393.367 411.89,392.607 412.39,391.62C412.897,390.627 413.15,389.477 413.15,388.17C413.15,386.863 412.897,385.72 412.39,384.74C411.89,383.76 411.19,383.01 410.29,382.49C409.397,381.963 408.36,381.7 407.18,381.7C406.007,381.7 404.967,381.963 404.06,382.49C403.153,383.01 402.45,383.76 401.95,384.74C401.443,385.72 401.19,386.863 401.19,388.17C401.19,389.477 401.443,390.627 401.95,391.62C402.45,392.607 403.153,393.367 404.06,393.9C404.967,394.433 406.007,394.7 407.18,394.7Z" style="fill:rgb(24,42,70);fill-rule:nonzero;"/>
    <path d="M439.16,398.2C437.333,398.2 435.653,397.77 434.12,396.91C432.593,396.05 431.38,394.86 430.48,393.34C429.587,391.82 429.14,390.097 429.14,388.17C429.14,386.27 429.587,384.557 430.48,383.03C431.38,381.51 432.593,380.32 434.12,379.46C435.653,378.607 437.333,378.18 439.16,378.18C441.013,378.18 442.7,378.607 444.22,379.46C445.74,380.32 446.943,381.51 447.83,383.03C448.717,384.557 449.16,386.27 449.16,388.17C449.16,390.097 448.717,391.82 447.83,393.34C446.943,394.86 445.733,396.05 444.2,396.91C442.673,397.77 440.993,398.2 439.16,398.2ZM439.16,394.7C440.34,394.7 441.377,394.433 442.27,393.9C443.17,393.367 443.87,392.607 444.37,391.62C444.877,390.627 445.13,389.477 445.13,388.17C445.13,386.863 444.877,385.72 444.37,384.74C443.87,383.76 443.17,383.01 442.27,382.49C441.377,381.963 440.34,381.7 439.16,381.7C437.987,381.7 436.947,381.963 436.04,382.49C435.133,383.01 434.43,383.76 433.93,384.74C433.423,385.72 433.17,386.863 433.17,388.17C433.17,389.477 433.423,390.627 433.93,391.62C434.43,392.607 435.133,393.367 436.04,393.9C436.947,394.433 437.987,394.7 439.16,394.7Z" style="fill:rgb(24,42,70);fill-rule:nonzero;"/>
    <path d="M465.99,378.46L465.99,394.89L472.43,394.89L472.43,398L462.07,398L462.07,378.46L465.99,378.46Z" style="fill:rgb(24,42,70);fill-rule:nonzero;"/>
    <g transform="matrix(0.816327,0,0,7.535714,204.306122,-1777.714286)">
        <rect x="214" y="244" width="49" height="28" style="fill:rgb(24,42,70);"/>
    </g>
    <g transform="matrix(0.816327,0,0,8.535714,264.306122,-2049.714286)">
        <rect x="214" y="244" width="49" height="28" style="fill:rgb(244,190,53);"/>
    </g>
    <g transform="matrix(0.816327,0,0,6.214286,145.306122,-1418.285714)">
        <path d="M263,255.828L263,257.78L262.363,257.725L214,267.438L214,244L263,244L263,244.022L311.811,259.29L369.689,241.186L353.835,240.322L401.179,237.492L419.355,243.894L401.831,242.939L330.683,265.193L330.702,265.199L330.675,265.198L329.52,265.557L324.21,267.218L323.387,267.172L299.267,267.172L294.102,265.557L294.097,265.557L294.083,265.551L263,255.828Z" style="fill:rgb(60,124,173);"/>
    </g>
    <g transform="matrix(0.816327,0,0,6.214286,145.306122,-1418.285714)">
        <path d="M263,260.539L263,272L214,272L214,270.38L263,260.539Z" style="fill:rgb(111,142,172);"/>
    </g>
</svg>
